<svg width="32.976" height="32.976" viewBox="0 0 24.732 24.732" xmlns="http://www.w3.org/2000/svg"><defs><filter style="color-interpolation-filters:sRGB" id="a" x="-.18" width="1.361" y="-.18" height="1.361"><feGaussianBlur stdDeviation=".533"/></filter></defs><path style="fill:#a00;fill-opacity:1;stroke:#fff;stroke-width:2.25000572;stroke-linecap:butt;stroke-linejoin:miter;stroke-miterlimit:10;stroke-dasharray:none;stroke-opacity:1;filter:url(#a)" d="M15.637 8.97a6.666 6.666 0 0 0-6.666-6.666 6.666 6.666 0 0 0-6.667 6.667 6.666 6.666 0 0 0 6.667 6.666 6.666 6.666 0 0 0 6.666-6.666z" transform="translate(.405 .405) scale(1.33333)"/><path style="fill:none;stroke:#bfc1c2;stroke-width:1.5;stroke-linecap:butt;stroke-linejoin:miter;stroke-miterlimit:4;stroke-dasharray:none;stroke-opacity:1" d="M9.538 10.421a1.249 1.249 0 0 1-1.768 0 1.249 1.249 0 0 1 0-1.767 1.249 1.249 0 0 1 1.768 0 1.249 1.249 0 0 1 0 1.767zm7.424 0a1.249 1.249 0 0 1-1.768 0 1.249 1.249 0 0 1 0-1.767 1.249 1.249 0 0 1 1.768 0 1.249 1.249 0 0 1 0 1.767zm-1.768 0a4.003 4.003 0 0 1 0 5.657 4.003 4.003 0 0 1-5.656 0 4.003 4.003 0 0 1 0-5.657"/></svg>